<svg width="23" height="23" viewBox="0 0 23 23" fill="none" xmlns="http://www.w3.org/2000/svg">
<path d="M18.4552 11.179L15.3748 14.2593C15.278 14.3529 15.1483 14.4046 15.0137 14.4034C14.8791 14.4023 14.7503 14.3483 14.6551 14.2531C14.5599 14.1579 14.5059 14.0291 14.5048 13.8945C14.5036 13.7599 14.5553 13.6302 14.6489 13.5334L16.8523 11.3289H9.36399C7.31042 11.3289 6.28364 13.2243 6.28364 14.9226C6.28364 15.0588 6.22955 15.1894 6.13327 15.2857C6.03699 15.382 5.9064 15.436 5.77024 15.436C5.63408 15.436 5.5035 15.382 5.40722 15.2857C5.31094 15.1894 5.25685 15.0588 5.25685 14.9226C5.25685 12.6576 6.28364 10.3021 9.36399 10.3021H16.8523L14.6489 8.09863C14.5553 8.0018 14.5036 7.87212 14.5048 7.73751C14.5059 7.6029 14.5599 7.47413 14.6551 7.37895C14.7503 7.28376 14.8791 7.22977 15.0137 7.2286C15.1483 7.22743 15.278 7.27917 15.3748 7.37269L18.4552 10.453C18.5514 10.5493 18.6055 10.6799 18.6055 10.816C18.6055 10.9522 18.5514 11.0827 18.4552 11.179Z" fill="white"/>
</svg>
