<svg width="103" height="118" viewBox="0 0 103 118" xmlns="http://www.w3.org/2000/svg">
<path fill="white" d="M24.0244 0.5V67.8564C24.0244 76.0577 26.7335 82.9821 31.5156 87.8535C36.2965 92.7237 43.188 95.5811 51.627 95.5811C60.0649 95.581 66.8206 92.7275 71.4678 87.8633C76.1178 82.9959 78.6992 76.0708 78.6992 67.8564V0.5H102.211V68.0146C102.211 82.4932 97.2374 94.8052 88.4033 103.498C79.5695 112.191 66.9129 117.228 51.6143 117.228C36.3162 117.228 23.5319 112.191 14.5693 103.501C5.60577 94.8097 0.5 82.4971 0.5 68.0146V67.5146H0.512695V0.5H24.0244Z"/>
</svg>
