<svg width="17" height="17" viewBox="0 0 17 17" fill="none" xmlns="http://www.w3.org/2000/svg">
<g clip-path="url(#clip0_2855_33845)">
<path d="M8.39503 15.3903C12.2586 15.3903 15.3906 12.2582 15.3906 8.39466C15.3906 4.53109 12.2586 1.39905 8.39503 1.39905C4.53146 1.39905 1.39941 4.53109 1.39941 8.39466C1.39941 12.2582 4.53146 15.3903 8.39503 15.3903Z" stroke="url(#paint0_linear_2855_33845)" stroke-width="1.39912" stroke-linecap="round" stroke-linejoin="round"/>
<path d="M8.39493 1.39905C6.59862 3.28517 5.59668 5.79001 5.59668 8.39466C5.59668 10.9993 6.59862 13.5042 8.39493 15.3903C10.1912 13.5042 11.1932 10.9993 11.1932 8.39466C11.1932 5.79001 10.1912 3.28517 8.39493 1.39905Z" stroke="url(#paint1_linear_2855_33845)" stroke-width="1.39912" stroke-linecap="round" stroke-linejoin="round"/>
<path d="M1.39941 8.39478H15.3906" stroke="url(#paint2_linear_2855_33845)" stroke-width="1.39912" stroke-linecap="round" stroke-linejoin="round"/>
</g>
<defs>
<linearGradient id="paint0_linear_2855_33845" x1="1.39941" y1="10.4135" x2="13.9353" y2="6.14219" gradientUnits="userSpaceOnUse">
<stop stop-color="#40C9FF"/>
<stop offset="1" stop-color="#E81CFF"/>
</linearGradient>
<linearGradient id="paint1_linear_2855_33845" x1="5.59668" y1="10.4135" x2="11.0911" y2="9.66469" gradientUnits="userSpaceOnUse">
<stop stop-color="#40C9FF"/>
<stop offset="1" stop-color="#E81CFF"/>
</linearGradient>
<linearGradient id="paint2_linear_2855_33845" x1="1.39941" y1="9.03907" x2="1.9891" y2="6.22789" gradientUnits="userSpaceOnUse">
<stop stop-color="#40C9FF"/>
<stop offset="1" stop-color="#E81CFF"/>
</linearGradient>
<clipPath id="clip0_2855_33845">
<rect width="16.7895" height="16.7895" fill="white"/>
</clipPath>
</defs>
</svg>
