<svg width="24" height="21" viewBox="0 0 24 21" fill="none" xmlns="http://www.w3.org/2000/svg">
<path d="M1.5 3H22.5C22.8978 3 23.2794 2.84196 23.5607 2.56066C23.842 2.27936 24 1.89782 24 1.5C24 1.10218 23.842 0.720644 23.5607 0.43934C23.2794 0.158035 22.8978 0 22.5 0H1.5C1.10217 0 0.720644 0.158035 0.439339 0.43934C0.158033 0.720644 0 1.10218 0 1.5C0 1.89782 0.158033 2.27936 0.439339 2.56066C0.720644 2.84196 1.10217 3 1.5 3ZM16.5 21H22.5C22.8978 21 23.2794 20.842 23.5607 20.5607C23.842 20.2794 24 19.8978 24 19.5C24 19.1022 23.842 18.7206 23.5607 18.4393C23.2794 18.158 22.8978 18 22.5 18H16.5C16.1022 18 15.7206 18.158 15.4393 18.4393C15.158 18.7206 15 19.1022 15 19.5C15 19.8978 15.158 20.2794 15.4393 20.5607C15.7206 20.842 16.1022 21 16.5 21ZM9 12H22.5C22.8978 12 23.2794 11.842 23.5607 11.5607C23.842 11.2794 24 10.8978 24 10.5C24 10.1022 23.842 9.72064 23.5607 9.43934C23.2794 9.15804 22.8978 9 22.5 9H9C8.60218 9 8.22064 9.15804 7.93934 9.43934C7.65804 9.72064 7.5 10.1022 7.5 10.5C7.5 10.8978 7.65804 11.2794 7.93934 11.5607C8.22064 11.842 8.60218 12 9 12Z" fill="white"/>
</svg>
