<svg width="13" height="16" viewBox="0 0 13 16" fill="none" xmlns="http://www.w3.org/2000/svg">
<path d="M11.8922 8.39507C11.8922 11.8929 9.44374 13.6418 6.53356 14.6562C6.38117 14.7078 6.21564 14.7053 6.06486 14.6492C3.14768 13.6418 0.699219 11.8929 0.699219 8.39507V3.49815C0.699219 3.31261 0.772922 3.13467 0.904116 3.00348C1.03531 2.87229 1.21324 2.79858 1.39878 2.79858C2.7979 2.79858 4.54681 1.95911 5.76404 0.895777C5.91225 0.769155 6.10078 0.699585 6.29571 0.699585C6.49064 0.699585 6.67917 0.769155 6.82738 0.895777C8.05161 1.96611 9.79352 2.79858 11.1926 2.79858C11.3782 2.79858 11.5561 2.87229 11.6873 3.00348C11.8185 3.13467 11.8922 3.31261 11.8922 3.49815V8.39507Z" stroke="url(#paint0_linear_2855_33853)" stroke-width="1.39912" stroke-linecap="round" stroke-linejoin="round"/>
<defs>
<linearGradient id="paint0_linear_2855_33853" x1="0.699219" y1="9.71558" x2="11.1183" y2="6.87598" gradientUnits="userSpaceOnUse">
<stop stop-color="#40C9FF"/>
<stop offset="1" stop-color="#E81CFF"/>
</linearGradient>
</defs>
</svg>
