<svg width="15" height="16" viewBox="0 0 15 16" fill="none" xmlns="http://www.w3.org/2000/svg">
<path d="M7.16147 0.699585H6.85367C6.4826 0.699585 6.12672 0.846992 5.86434 1.10938C5.60195 1.37176 5.45454 1.72764 5.45454 2.09871V2.22463C5.45429 2.46998 5.38952 2.71096 5.26674 2.92338C5.14395 3.1358 4.96747 3.31219 4.75498 3.43487L4.45417 3.60976C4.24148 3.73256 4.00021 3.79721 3.75461 3.79721C3.50901 3.79721 3.26774 3.73256 3.05505 3.60976L2.95011 3.5538C2.62906 3.3686 2.24764 3.31835 1.88958 3.4141C1.53152 3.50984 1.22608 3.74375 1.04031 4.06448L0.886407 4.33031C0.701207 4.65136 0.650966 5.03278 0.746711 5.39084C0.842456 5.7489 1.07636 6.05434 1.39709 6.24011L1.50202 6.31007C1.71348 6.43215 1.88931 6.60744 2.01204 6.81853C2.13476 7.02962 2.20011 7.26915 2.20158 7.51331V7.87009C2.20256 8.11663 2.13838 8.35905 2.01553 8.57281C1.89268 8.78656 1.71553 8.96406 1.50202 9.08733L1.39709 9.15029C1.07636 9.33606 0.842456 9.6415 0.746711 9.99956C0.650966 10.3576 0.701207 10.739 0.886407 11.0601L1.04031 11.3259C1.22608 11.6466 1.53152 11.8806 1.88958 11.9763C2.24764 12.072 2.62906 12.0218 2.95011 11.8366L3.05505 11.7806C3.26774 11.6578 3.50901 11.5932 3.75461 11.5932C4.00021 11.5932 4.24148 11.6578 4.45417 11.7806L4.75498 11.9555C4.96747 12.0782 5.14395 12.2546 5.26674 12.467C5.38952 12.6794 5.45429 12.9204 5.45454 13.1658V13.2917C5.45454 13.6628 5.60195 14.0186 5.86434 14.281C6.12672 14.5434 6.4826 14.6908 6.85367 14.6908H7.16147C7.53254 14.6908 7.88842 14.5434 8.1508 14.281C8.41319 14.0186 8.5606 13.6628 8.5606 13.2917V13.1658C8.56085 12.9204 8.62562 12.6794 8.7484 12.467C8.87119 12.2546 9.04768 12.0782 9.26016 11.9555L9.56097 11.7806C9.77366 11.6578 10.0149 11.5932 10.2605 11.5932C10.5061 11.5932 10.7474 11.6578 10.9601 11.7806L11.065 11.8366C11.3861 12.0218 11.7675 12.072 12.1256 11.9763C12.4836 11.8806 12.7891 11.6466 12.9748 11.3259L13.1287 11.0531C13.3139 10.732 13.3642 10.3506 13.2684 9.99256C13.1727 9.6345 12.9388 9.32906 12.6181 9.14329L12.5131 9.08733C12.2996 8.96406 12.1225 8.78656 11.9996 8.57281C11.8768 8.35905 11.8126 8.11663 11.8136 7.87009V7.52031C11.8126 7.27377 11.8768 7.03135 11.9996 6.81759C12.1225 6.60384 12.2996 6.42634 12.5131 6.30307L12.6181 6.24011C12.9388 6.05434 13.1727 5.7489 13.2684 5.39084C13.3642 5.03278 13.3139 4.65136 13.1287 4.33031L12.9748 4.06448C12.7891 3.74375 12.4836 3.50984 12.1256 3.4141C11.7675 3.31835 11.3861 3.3686 11.065 3.5538L10.9601 3.60976C10.7474 3.73256 10.5061 3.79721 10.2605 3.79721C10.0149 3.79721 9.77366 3.73256 9.56097 3.60976L9.26016 3.43487C9.04768 3.31219 8.87119 3.1358 8.7484 2.92338C8.62562 2.71096 8.56085 2.46998 8.5606 2.22463V2.09871C8.5606 1.72764 8.41319 1.37176 8.1508 1.10938C7.88842 0.846992 7.53254 0.699585 7.16147 0.699585Z" stroke="url(#paint0_linear_2855_33840)" stroke-width="1.39912" stroke-linecap="round" stroke-linejoin="round"/>
<defs>
<linearGradient id="paint0_linear_2855_33840" x1="0.699219" y1="9.71407" x2="12.2276" y2="6.17191" gradientUnits="userSpaceOnUse">
<stop stop-color="#40C9FF"/>
<stop offset="1" stop-color="#E81CFF"/>
</linearGradient>
</defs>
</svg>
